<svg id="Layer_1" data-name="Layer 1" xmlns="http://www.w3.org/2000/svg" viewBox="0 0 306.93 300"><defs><style>.cls-1{fill:#1d1d1b;}</style></defs><title>TRAI</title><g id="Group_21636" data-name="Group 21636"><circle id="Ellipse_1665" data-name="Ellipse 1665" class="cls-1" cx="202.7" cy="31" r="31"/><path id="Path_26924" data-name="Path 26924" class="cls-1" d="M139.15,70c17.9,10,36.2,19.1,57.25,21.2a57.12,57.12,0,0,0,12.4,0c27.15-.65,52.7-16.15,66.87-26.55a24.4,24.4,0,0,1,21.15-3.75,21.88,21.88,0,0,1,2.5.9,5.2,5.2,0,0,1,1.7.8h0c0,.55-.9,1.55-1.2,2l-1.75,2.6c-1.4,1.94-2.89,3.9-4.4,5.75s-4.2,5-6.4,7.3-5.55,5.6-8.55,8.2Q273.59,93,268,97.05a149.55,149.55,0,0,1-13,8.35,154.52,154.52,0,0,1-15.4,7.55,161.45,161.45,0,0,1-17.9,6.14,158.46,158.46,0,0,1-20.45,4.2c-5,.7-10.48,1.2-15.8,1.45a127.28,127.28,0,0,1-17.35-.7c-19.3-2.35-37.7-5.85-54-17.1-5.78-4-11.1-8.8-17-12.75A41.72,41.72,0,0,0,66.62,87,3.51,3.51,0,0,1,64,86.54c-3.36-2.6,5.89-8.35,7.39-9.55a70.56,70.56,0,0,1,26-14.6A48.28,48.28,0,0,1,130,64.29Z"/><path id="Path_26925" data-name="Path 26925" class="cls-1" d="M97.75,138.05c23.14,13.2,46.8,24.7,73.95,27.4a78.77,78.77,0,0,0,16.1.3c35-.9,68.1-21,86.38-34.34a31.63,31.63,0,0,1,27.36-5c1.08.3,2.15.75,3.19,1.15a6,6,0,0,1,2.2,1.05h0c0,.7-1.19,2-1.6,2.55l-2.24,3.4c-1.81,2.55-3.71,5-5.7,7.45-2.6,3.25-5.4,6.35-8.25,9.4s-7.2,7.25-11.05,10.6a164.12,164.12,0,0,1-13.85,11.1,188.14,188.14,0,0,1-16.85,10.8,182.86,182.86,0,0,1-20,10,189,189,0,0,1-23.13,8,205.56,205.56,0,0,1-26.46,5.44c-6.75.95-13.55,1.55-20.4,1.85A159.74,159.74,0,0,1,135,208.3c-25-3.1-48.7-7.59-70-22.15-7.55-5-14.35-11.35-21.95-16.45a54,54,0,0,0-39.35-9.35A4.28,4.28,0,0,1,.94,160c-4.34-3.35,7.65-10.75,9.6-12.35a91.13,91.13,0,0,1,33.61-18.85,61.73,61.73,0,0,1,42.05,2.45C89.9,133.5,93.8,135.8,97.75,138.05Z"/><path id="Path_26926" data-name="Path 26926" class="cls-1" d="M110.25,249.3H97V300H84.75V249.3H71.45v-10h38.8Z"/><path id="Path_26927" data-name="Path 26927" class="cls-1" d="M148.36,239.25a17,17,0,0,1,11.95,3.9,15,15,0,0,1,4.25,11.75,18.18,18.18,0,0,1-2.5,10,11.42,11.42,0,0,1-7.65,5h0a11,11,0,0,1,6.75,3,12.35,12.35,0,0,1,2.6,7.4,16.42,16.42,0,0,0,.3,3.7,22.06,22.06,0,0,1,0,4.45,59.21,59.21,0,0,0,.5,7.4,5,5,0,0,0,2.2,3.5V300H153.51a6.13,6.13,0,0,1-1.2-2.95c0-1.09-.3-2.25-.36-3.45l-.3-11.65a10,10,0,0,0-1.81-5.6,6.62,6.62,0,0,0-5.45-2.05h-6.55V300H126V239.25Zm-5,26.55a10,10,0,0,0,6.8-2.1,8.71,8.71,0,0,0,2.4-7,7.49,7.49,0,0,0-6.4-8.45,7.39,7.39,0,0,0-2.1,0h-5.78V265.8Z"/><path id="Path_26928" data-name="Path 26928" class="cls-1" d="M210.2,239.25,226.32,300H213.56L211,287.14h-16.2l-3,12.85H179l16.1-60.75Zm-1.6,37.85L202.76,250h0l-5.85,27.3Z"/><path id="Path_26929" data-name="Path 26929" class="cls-1" d="M241.35,239.25H253.6V300H241.35Z"/></g></svg>