<svg id="Layer_1" data-name="Layer 1" xmlns="http://www.w3.org/2000/svg" viewBox="0 0 307.27 300"><defs><style>.cls-1{fill:#0c4687;}</style></defs><title>TRAI</title><circle class="cls-1" cx="202.88" cy="31.01" r="31.01"/><path class="cls-1" d="M139.31,70.09c17.93,10.22,36.24,19.11,57.25,21.19a58.24,58.24,0,0,0,12.45.25c27.11-.68,52.68-16.2,66.85-26.59A24.48,24.48,0,0,1,297,61.21a21.88,21.88,0,0,1,2.5.9,4.94,4.94,0,0,1,1.67.83.45.45,0,0,1,.11.19c.05.55-.93,1.57-1.21,2-.58.84-1.18,1.74-1.78,2.6-1.39,2-2.85,3.9-4.38,5.77q-3,3.75-6.4,7.28Q283.4,85.09,279,89q-5.15,4.55-10.72,8.57a141.06,141.06,0,0,1-13,8.34,144.52,144.52,0,0,1-15.41,7.55A148.12,148.12,0,0,1,222,119.59a158.32,158.32,0,0,1-20.47,4.17c-5.23.72-10.5,1.21-15.78,1.46a122.63,122.63,0,0,1-17.35-.69c-19.29-2.37-37.67-5.83-54-17.14-5.83-4-11.11-8.76-17-12.71-9.12-6.08-19.56-9-30.48-7.18a3.31,3.31,0,0,1-2.6-.43c-3.33-2.58,5.92-8.33,7.41-9.55,7.81-6.44,16.17-11.89,26-14.6,10.7-3,22.35-2.72,32.55,1.92Z"/><path class="cls-1" d="M97.91,138c23.17,13.21,46.83,24.7,74,27.39a74.13,74.13,0,0,0,16.1.31c35-.83,68.08-20.91,86.4-34.35a31.66,31.66,0,0,1,27.33-4.83,29.82,29.82,0,0,1,3.2,1.17,6.36,6.36,0,0,1,2.19,1,.37.37,0,0,1,.15.25c.08.7-1.2,2-1.57,2.58-.75,1.13-1.5,2.25-2.29,3.34q-2.7,3.83-5.66,7.5-4,4.88-8.28,9.41-5.27,5.55-11,10.63-6.66,5.88-13.86,11.08a182.34,182.34,0,0,1-16.85,10.79,183.79,183.79,0,0,1-19.95,9.73,194.14,194.14,0,0,1-23.12,8,207.06,207.06,0,0,1-26.45,5.42q-10.15,1.41-20.41,1.89a160,160,0,0,1-22.42-.89c-24.93-3.07-48.7-7.56-69.85-22.15-7.5-5.18-14.35-11.32-21.93-16.42C31.88,162,18.41,158.2,4.27,160.51A4.38,4.38,0,0,1,.94,160c-4.34-3.33,7.64-10.77,9.57-12.36,10.09-8.33,20.91-15.35,33.62-18.86,13.83-3.81,28.87-3.51,42.06,2.5C90.1,133.52,94,135.83,97.91,138Z"/><path class="cls-1" d="M110.45,249.29H97.17V300H84.92V249.29H71.65v-10h38.8Z"/><path class="cls-1" d="M148.56,239.26q7.65,0,11.91,3.86t4.25,11.79a18.12,18.12,0,0,1-2.5,10,11.39,11.39,0,0,1-7.66,5v.17c3.07.45,5.31,1.45,6.73,3s2.3,4,2.63,7.4c.12,1.13.2,2.37.26,3.7s.12,2.82.17,4.47c.11,3.23.29,5.7.51,7.4a4.79,4.79,0,0,0,2.21,3.49V300H153.84a6.51,6.51,0,0,1-1.19-2.93,33.6,33.6,0,0,1-.35-3.45L152,282a9.6,9.6,0,0,0-1.78-5.62q-1.62-2-5.45-2h-6.55V300H125.93V239.26Zm-5.27,26.57q4.41,0,6.8-2.08c1.58-1.39,2.38-3.75,2.38-7.08q0-8.43-8.51-8.43h-5.78v17.5Z"/><path class="cls-1" d="M210.41,239.26,226.49,300H213.73l-2.81-12.85H194.75L192,300H179.19l16.11-60.74Zm-1.61,37.86-5.88-27.31h-.17l-5.87,27.31Z"/><path class="cls-1" d="M241.55,239.26H253.8V300H241.55Z"/></svg>