<svg id="Layer_1" data-name="Layer 1" xmlns="http://www.w3.org/2000/svg" viewBox="0 0 306.25 299"><defs><style>.cls-1{fill:#fff;}</style></defs><title>TRAI</title><circle class="cls-1" cx="202.2" cy="30.9" r="30.9"/><path class="cls-1" d="M138.85,69.86C156.71,80,175,88.9,195.91,91a58.5,58.5,0,0,0,12.41.24c27-.67,52.5-16.14,66.62-26.49A24.37,24.37,0,0,1,296,61a21.73,21.73,0,0,1,2.49.9,4.8,4.8,0,0,1,1.66.83.31.31,0,0,1,.11.19c.06.54-.92,1.56-1.2,2-.58.83-1.17,1.72-1.77,2.58-1.39,2-2.84,3.89-4.37,5.76q-3,3.73-6.38,7.25-4.06,4.29-8.5,8.19-5.13,4.55-10.68,8.55a144.44,144.44,0,0,1-13,8.31A142.63,142.63,0,0,1,239,113.08a148.89,148.89,0,0,1-17.76,6.11,159,159,0,0,1-20.4,4.16c-5.21.72-10.47,1.2-15.73,1.45a123.28,123.28,0,0,1-17.29-.68C148.58,121.75,130.26,118.3,114,107c-5.82-4-11.07-8.73-16.91-12.66-9.1-6.07-19.49-9-30.38-7.16a3.28,3.28,0,0,1-2.59-.43c-3.33-2.57,5.89-8.3,7.38-9.52,7.78-6.41,16.12-11.85,25.93-14.54C108,59.78,119.65,60,129.81,64.63Z"/><path class="cls-1" d="M97.59,137.57c23.09,13.17,46.67,24.62,73.74,27.3a74.21,74.21,0,0,0,16,.31c34.88-.83,67.86-20.85,86.11-34.23a31.54,31.54,0,0,1,27.24-4.82,27.6,27.6,0,0,1,3.19,1.16,6.55,6.55,0,0,1,2.19,1,.41.41,0,0,1,.15.25c.07.7-1.2,2-1.56,2.58-.75,1.12-1.51,2.23-2.29,3.32q-2.68,3.81-5.64,7.47c-2.63,3.24-5.39,6.37-8.25,9.39q-5.25,5.53-11,10.59-6.63,5.85-13.82,11a181.72,181.72,0,0,1-16.78,10.76,184.26,184.26,0,0,1-19.88,9.69A191.79,191.79,0,0,1,204,201.34a206,206,0,0,1-26.36,5.41q-10.12,1.41-20.34,1.88a160.43,160.43,0,0,1-22.35-.88c-24.85-3.07-48.53-7.54-69.61-22.08C57.86,180.5,51,174.38,43.48,169.3,31.77,161.42,18.35,157.67,4.26,160a4.38,4.38,0,0,1-3.32-.54c-4.32-3.33,7.61-10.74,9.54-12.32,10.06-8.31,20.84-15.3,33.5-18.8,13.79-3.8,28.78-3.5,41.92,2.49C89.8,133.07,93.68,135.38,97.59,137.57Z"/><path class="cls-1" d="M110.08,248.46H96.85V299H84.64V248.46H71.41v-10h38.67Z"/><path class="cls-1" d="M148.07,238.46q7.62,0,11.87,3.85t4.23,11.75a18.12,18.12,0,0,1-2.49,10,11.33,11.33,0,0,1-7.63,5v.16c3,.46,5.29,1.45,6.7,3s2.29,4,2.63,7.37c.11,1.13.19,2.36.25,3.69s.12,2.82.18,4.45c.1,3.23.28,5.68.5,7.38a4.79,4.79,0,0,0,2.2,3.48V299H153.33a6.41,6.41,0,0,1-1.19-2.92,30.58,30.58,0,0,1-.34-3.44L151.46,281a9.68,9.68,0,0,0-1.78-5.6c-1.08-1.36-2.89-2-5.43-2h-6.53V299H125.51V238.46ZM142.81,265c2.93,0,5.2-.69,6.78-2.08s2.37-3.74,2.37-7.06q0-8.4-8.48-8.4h-5.76v17.45Z"/><path class="cls-1" d="M209.71,238.46l16,60.54H213l-2.8-12.81H194.11L191.33,299H178.59l16.06-60.54Zm-1.61,37.73L202.25,249h-.17l-5.86,27.21Z"/><path class="cls-1" d="M240.74,238.46H253V299H240.74Z"/></svg>