<?xml version="1.0" encoding="UTF-8"?>
<svg version="1.1" xmlns="http://www.w3.org/2000/svg" width="100" height="90">
<path d="M0 0 C33 0 66 0 100 0 C100 29.7 100 59.4 100 90 C67 90 34 90 0 90 C0 60.3 0 30.6 0 0 Z " fill="#FCFDFE" transform="translate(0,0)"/>
<path d="M0 0 C1.093125 0.37125 2.18625 0.7425 3.3125 1.125 C5.90104505 2.30596574 5.90104505 2.30596574 7.875 1.125 C8.57625 0.75375 9.2775 0.3825 10 0 C15.62058275 -0.4532728 19.22867774 -0.28028405 24 3 C28.60395679 7.56812834 32.60296533 12.47981866 36 18 C36.08636719 17.34773438 36.17273438 16.69546875 36.26171875 16.0234375 C37.38954972 9.00812192 38.99380353 4.93787741 44.875 0.625 C49.28333045 -0.67156778 52.90852788 -0.40662687 57.1875 1.1875 C60.80761046 3.52046007 63.07772378 6.15544755 65 10 C65.63609303 13.95343894 65.83174081 17.51514728 63.8359375 21.078125 C61.0516097 24.47643278 58.43004574 27.17580544 54 28 C49.31629766 27.90052314 45.95063755 27.63375837 42 25 C42.54140625 25.81791016 42.54140625 25.81791016 43.09375 26.65234375 C46.50068778 32.18861764 48.214229 36.49686966 47 43 C44.2679261 52.00505938 36.47673549 60.60216169 29 66 C25.32806676 67.22397775 21.80297686 67.72596231 18 67 C13.44405777 64.44437317 10.5912371 61.61175854 7.5 57.4375 C7.08838623 56.88666748 6.67677246 56.33583496 6.25268555 55.76831055 C5.33624448 54.53806343 4.42462618 53.30421344 3.51708984 52.06738281 C1.85011374 49.7957456 0.16967672 47.53442042 -1.51171875 45.2734375 C-3.94781339 41.99286899 -6.36693273 38.70076525 -8.7734375 35.3984375 C-10.61782159 32.86841671 -12.48431486 30.38089201 -14.4140625 27.9140625 C-18.50260981 22.58044317 -20.68676546 17.86765459 -20 11 C-16.93056103 2.59101616 -8.47080841 -1.58228308 0 0 Z " fill="#24A6F4" transform="translate(28,13)"/>
<path d="M0 0 C0.99 0.66 1.98 1.32 3 2 C1.125 6.75 1.125 6.75 0 9 C-1.29609083 17.38357487 1.43429202 23.09575866 6 30 C7.30799504 31.68662519 8.62842462 33.36466012 10 35 C10 35.66 10 36.32 10 37 C10.66 37 11.32 37 12 37 C12.495 38.98 12.495 38.98 13 41 C13.66 41 14.32 41 15 41 C16.66704999 43.13478344 18.22011955 45.26988982 19.75 47.5 C20.64756742 48.78706555 21.54600174 50.07352697 22.4453125 51.359375 C22.88133789 51.98521484 23.31736328 52.61105469 23.76660156 53.25585938 C25.76917835 56.08769005 27.89455266 58.82180724 30.0390625 61.546875 C31 63 31 63 31 65 C26.86093445 67.06953277 22.55498715 67.97195024 18 67 C13.44936996 64.43466454 10.5920573 61.6128661 7.5 57.4375 C7.08838623 56.88666748 6.67677246 56.33583496 6.25268555 55.76831055 C5.33624448 54.53806343 4.42462618 53.30421344 3.51708984 52.06738281 C1.85011374 49.7957456 0.16967672 47.53442042 -1.51171875 45.2734375 C-3.94781339 41.99286899 -6.36693273 38.70076525 -8.7734375 35.3984375 C-10.61782159 32.86841671 -12.48431486 30.38089201 -14.4140625 27.9140625 C-18.50260981 22.58044317 -20.68676546 17.86765459 -20 11 C-17.0141912 2.82012798 -8.38333056 -1.90224167 0 0 Z " fill="#0C4DC1" transform="translate(28,13)"/>
<path d="M0 0 C3.51645158 1.17215053 4.13133753 2.14915541 6.28515625 5.078125 C6.89810547 5.90957031 7.51105469 6.74101562 8.14257812 7.59765625 C8.77615234 8.47292969 9.40972656 9.34820312 10.0625 10.25 C11.01866211 11.53970703 11.01866211 11.53970703 11.99414062 12.85546875 C14.8944463 16.82237788 17.3130987 20.35319981 19 25 C19.66 25 20.32 25 21 25 C22.515625 26.87109375 22.515625 26.87109375 24.25 29.4375 C25.17425781 30.79681641 25.17425781 30.79681641 26.1171875 32.18359375 C26.73851563 33.11300781 27.35984375 34.04242188 28 35 C28.58007812 35.85722656 29.16015625 36.71445312 29.7578125 37.59765625 C35.2321224 45.72978327 35.2321224 45.72978327 34.9375 51.3125 C34.88916016 52.72982422 34.88916016 52.72982422 34.83984375 54.17578125 C33.6256307 58.25892558 31.40463168 59.51773866 28 62 C25.6985827 59.11179749 23.41065858 56.21318413 21.125 53.3125 C20.47402344 52.49587891 19.82304688 51.67925781 19.15234375 50.83789062 C18.52714844 50.04189453 17.90195312 49.24589844 17.2578125 48.42578125 C16.6817627 47.69786377 16.10571289 46.96994629 15.51220703 46.2199707 C13.92768016 43.89383204 12.9466403 41.64287345 12 39 C11.34 39 10.68 39 10 39 C9.67 37.68 9.34 36.36 9 35 C8.34 35 7.68 35 7 35 C5.22145507 32.59408149 3.56407761 30.19293567 1.9375 27.6875 C1.24817383 26.65206055 1.24817383 26.65206055 0.54492188 25.59570312 C-3.53251446 19.39871839 -4.86966841 14.47688948 -4 7 C-2.92356735 4.33947213 -1.65319362 2.37646584 0 0 Z " fill="#1679E0" transform="translate(31,15)"/>
<path d="M0 0 C3.75985464 1.63471941 5.84876576 3.53852394 8 7 C8.29296875 9.578125 8.29296875 9.578125 8.1875 12.25 C8.16042969 13.14203125 8.13335937 14.0340625 8.10546875 14.953125 C8.07066406 15.62859375 8.03585938 16.3040625 8 17 C7.34 17.33 6.68 17.66 6 18 C5.690625 18.639375 5.38125 19.27875 5.0625 19.9375 C4 22 4 22 1 24 C-1.33199388 24.07905064 -3.66832622 24.08798769 -6 24 C-6 23.34 -6 22.68 -6 22 C-9.05847848 21.45627049 -11.88772805 21 -15 21 C-14.91254425 18.60250616 -14.80562925 16.20851779 -14.6875 13.8125 C-14.66494141 13.13896484 -14.64238281 12.46542969 -14.61914062 11.77148438 C-14.38459928 7.40048655 -13.66524236 4.49442887 -11 1 C-7.55105608 -0.72447196 -3.77843255 -0.36671096 0 0 Z " fill="#20A7F5" transform="translate(83,15)"/>
<path d="M0 0 C0.66 0.33 1.32 0.66 2 1 C1.91298828 2.16015625 1.91298828 2.16015625 1.82421875 3.34375 C1.50849436 10.63247315 2.06581958 15.44904703 7 21 C9.12603185 22.76323505 9.12603185 22.76323505 11 24 C11.33 24.99 11.66 25.98 12 27 C12.99 27.66 13.98 28.32 15 29 C15.6875 32.125 15.6875 32.125 16 35 C16.99 35 17.98 35 19 35 C21.38314183 38.20807554 22.43768609 41.06380262 23 45 C23.99 45 24.98 45 26 45 C26.268125 45.598125 26.53625 46.19625 26.8125 46.8125 C27.8694745 49.05510787 27.8694745 49.05510787 29.6875 50.5 C30.120625 50.995 30.55375 51.49 31 52 C30.58203125 54.09375 30.58203125 54.09375 30 56 C22.33256074 46.15953072 14.8886235 36.16532951 7.54003906 26.08496094 C6.25086855 24.33963498 4.92286612 22.62308128 3.5859375 20.9140625 C-0.50260981 15.58044317 -2.68676546 10.86765459 -2 4 C-0.99609375 1.7109375 -0.99609375 1.7109375 0 0 Z " fill="#2651A9" transform="translate(10,20)"/>
<path d="M0 0 C5.33739473 1.98844117 8.45333824 4.90667648 11 10 C11.63609303 13.95343894 11.83174081 17.51514728 9.8359375 21.078125 C7.0516097 24.47643278 4.43004574 27.17580544 0 28 C-3.05451115 27.93712842 -6.03438674 27.75978521 -9 27 C-9.33 26.34 -9.66 25.68 -10 25 C-8.75283203 25.03480469 -8.75283203 25.03480469 -7.48046875 25.0703125 C-6.39378906 25.08835937 -5.30710937 25.10640625 -4.1875 25.125 C-3.10855469 25.14820312 -2.02960938 25.17140625 -0.91796875 25.1953125 C2.19402868 25.23023717 2.19402868 25.23023717 5 23 C6.19232613 20.94996045 6.19232613 20.94996045 7 19 C7.66 19 8.32 19 9 19 C8.76322861 12.14375841 8.76322861 12.14375841 6.125 5.9375 C3.06074781 3.14362301 0.55544661 2.86153306 -3.4375 2.875 C-4.19933594 2.87242188 -4.96117188 2.86984375 -5.74609375 2.8671875 C-7.95315859 2.99723985 -9.87969276 3.39143801 -12 4 C-8.11952573 -0.05685946 -5.67663103 -0.37844207 0 0 Z " fill="#55A6D3" transform="translate(82,13)"/>
<path d="M0 0 C4.39643735 5.27572482 6.48600549 8.74317717 6.31640625 15.62890625 C5.43566986 22.22899256 1.32622143 27.1930873 -3 32 C-3.33 31.01 -3.66 30.02 -4 29 C-3.525625 28.62875 -3.05125 28.2575 -2.5625 27.875 C-0.73445871 26.00416377 -0.73445871 26.00416377 -0.5 22.9375 C-0.335 21.968125 -0.17 20.99875 0 20 C0.99 19.34 1.98 18.68 3 18 C3.47859178 15.70529877 3.47859178 15.70529877 3.375 13.125 C3.38273437 12.26132812 3.39046875 11.39765625 3.3984375 10.5078125 C2.93051903 7.56267862 1.7851964 6.33303445 0 4 C0 2.68 0 1.36 0 0 Z " fill="#51A4D5" transform="translate(69,38)"/>
<path d="M0 0 C0 3 0 3 -1 5 C-1.22858114 7.0374763 -1.41024278 9.08040303 -1.5625 11.125 C-1.64628906 12.22070312 -1.73007813 13.31640625 -1.81640625 14.4453125 C-1.87699219 15.28835937 -1.93757813 16.13140625 -2 17 C-4.31 16.67 -6.62 16.34 -9 16 C-9 15.01 -9 14.02 -9 13 C-9.99 12.67 -10.98 12.34 -12 12 C-12.33 9.69 -12.66 7.38 -13 5 C-10.06077639 7.85978513 -7.41317403 10.68807787 -5 14 C-4.89042969 13.32453125 -4.78085938 12.6490625 -4.66796875 11.953125 C-4.43013672 10.61507813 -4.43013672 10.61507813 -4.1875 9.25 C-4.03667969 8.36828125 -3.88585937 7.4865625 -3.73046875 6.578125 C-2.94585752 3.8089089 -1.85404641 2.1740599 0 0 Z " fill="#49A7DC" transform="translate(69,17)"/>
<path d="M0 0 C0.66 0.33 1.32 0.66 2 1 C1.91298828 2.16015625 1.91298828 2.16015625 1.82421875 3.34375 C1.51201158 10.55127548 2.02783634 15.53762302 7 21 C7.99 21.66 8.98 22.32 10 23 C10.1875 25.625 10.1875 25.625 10 28 C3.23146432 21.82868806 -1.46612474 15.59451122 -2.1875 6.26171875 C-1.97894375 3.74600895 -1.26712919 2.16302913 0 0 Z " fill="#3157A4" transform="translate(10,20)"/>
<path d="M0 0 C0.66 0.66 1.32 1.32 2 2 C-1.3 2 -4.6 2 -8 2 C-8 2.66 -8 3.32 -8 4 C-9.96466413 5.06775224 -11.96855359 6.06553465 -14 7 C-14.66 6.67 -15.32 6.34 -16 6 C-11.21071641 0.82572576 -7.16540653 -1.51772358 0 0 Z " fill="#254F9D" transform="translate(28,13)"/>
<path d="M0 0 C1.66611905 -0.042721 3.33382885 -0.04063832 5 0 C5.33 0.33 5.66 0.66 6 1 C7.51469448 1.23192865 9.03754562 1.41215238 10.5625 1.5625 C11.38878906 1.64628906 12.21507812 1.73007813 13.06640625 1.81640625 C13.70449219 1.87699219 14.34257813 1.93757813 15 2 C15 1.34 15 0.68 15 0 C15.99 0 16.98 0 18 0 C18 0.66 18 1.32 18 2 C13.68488883 4.15755559 9.7385333 4.64963763 5 4 C2 2.5625 2 2.5625 0 1 C0 0.67 0 0.34 0 0 Z " fill="#325CA2" transform="translate(41,76)"/>
<path d="M0 0 C0.33 0.66 0.66 1.32 1 2 C-0.67534656 6.74852829 -3.16479692 10.71268307 -7 14 C-6.42655063 11.13275314 -6.1385485 10.1385485 -4 8 C-3.855625 7.01 -3.71125 6.02 -3.5625 5 C-3.376875 4.01 -3.19125 3.02 -3 2 C-2.01 1.34 -1.02 0.68 0 0 Z " fill="#3D9FDB" transform="translate(72,56)"/>
<path d="M0 0 C0 2.31 0 4.62 0 7 C-1.65 5.35 -3.3 3.7 -5 2 C-1.125 0 -1.125 0 0 0 Z " fill="#DAFAFE" transform="translate(65,25)"/>
</svg>
