<?xml version="1.0" encoding="UTF-8"?>
<svg version="1.1" xmlns="http://www.w3.org/2000/svg" width="36" height="30">
<path d="M0 0 C3.89393086 1.35834798 5.24431949 3.6566576 7.6875 6.9375 C8.2134375 6.195 8.2134375 6.195 8.75 5.4375 C11.71302179 3.14354764 14.05792697 3.54861718 17.6875 3.9375 C19.625 5.0625 19.625 5.0625 20.6875 6.9375 C21.08581203 10.12399624 21.29298083 12.0595528 19.4375 14.75 C17.52158198 16.05008722 15.95779534 16.54606977 13.6875 16.9375 C13.666875 17.80375 13.64625 18.67 13.625 19.5625 C12.31367528 24.28326898 9.79906788 26.40855944 5.6875 28.9375 C2.0625 30.125 2.0625 30.125 -1.3125 29.9375 C-7.08449268 24.86712718 -13.93133278 17.02808776 -15.99609375 9.41796875 C-16.08406004 6.62891992 -15.5580459 4.42859181 -14.3125 1.9375 C-11.05946956 0.31098478 -7.92024398 0.82296844 -4.3125 0.9375 C-2.3125 -0.0625 -2.3125 -0.0625 0 0 Z " fill="#1FA3C9" transform="translate(15.3125,0.0625)"/>
<path d="M0 0 C-0.33 0.53625 -0.66 1.0725 -1 1.625 C-2.33247275 4.78962279 -2.41587526 6.55703269 -2 10 C-0.43518001 12.92887063 1.50996227 15.53493128 3.5 18.1875 C4.53736314 19.59316529 5.56890524 21.00315059 6.59375 22.41796875 C7.05458984 23.03438232 7.51542969 23.6507959 7.99023438 24.28588867 C9 26 9 26 9 29 C5.32340995 29.00463631 3.07444207 28.97645739 0.29736328 26.45263672 C-1.40335603 24.34755058 -2.93076746 22.18531053 -4.4375 19.9375 C-5.24864258 18.82858398 -5.24864258 18.82858398 -6.07617188 17.69726562 C-9.63376672 12.55651858 -10.72437103 9.23915799 -10 3 C-7.8202924 -1.102979 -4.20798751 -0.23818797 0 0 Z " fill="#174D9F" transform="translate(10,1)"/>
<path d="M0 0 C4.61590643 1.53863548 6.16037703 5.16440016 8.75 9.125 C9.26949219 9.87265625 9.78898437 10.6203125 10.32421875 11.390625 C14.45058243 17.67320524 14.45058243 17.67320524 13.828125 22.0546875 C13.41820312 23.51261719 13.41820312 23.51261719 13 25 C12.01 25.33 11.02 25.66 10 26 C7.97709973 23.14050134 5.98607194 20.26017208 4 17.375 C3.42765625 16.56675781 2.8553125 15.75851563 2.265625 14.92578125 C-0.16702064 11.363693 -1.87634108 8.85595157 -2.5 4.5390625 C-2 2 -2 2 0 0 Z " fill="#1D8EBF" transform="translate(9,3)"/>
</svg>
