<?xml version="1.0" encoding="UTF-8"?>
<svg version="1.1" xmlns="http://www.w3.org/2000/svg" width="265" height="167">
<path d="M0 0 C87.45 0 174.9 0 265 0 C265 55.11 265 110.22 265 167 C177.55 167 90.1 167 0 167 C0 111.89 0 56.78 0 0 Z " fill="#F4F4F4" transform="translate(0,0)"/>
<path d="M0 0 C8.0796108 3.62136981 12.25194259 11.33305091 16.94921875 18.4921875 C17.48224609 19.29849609 18.01527344 20.10480469 18.56445312 20.93554688 C19.54873002 22.4249621 20.53157299 23.91532673 21.51245117 25.40698242 C22.58971319 27.04340174 23.67496471 28.67455643 24.76171875 30.3046875 C24.8596875 29.65242188 24.95765625 29.00015625 25.05859375 28.328125 C26.31624128 20.97739203 28.16076333 15.93597378 34.38671875 11.4296875 C39.12746292 8.72948628 43.43018217 8.15103198 48.76171875 9.3046875 C53.99577804 11.63093608 58.64850333 15.00175721 61.171875 20.2578125 C62.87007189 26.15089308 62.62650591 32.15840824 60.07421875 37.7421875 C57.51839357 42.12744544 54.5458331 44.52898561 49.88671875 46.5546875 C44.35465442 47.88238294 39.9105085 47.80107041 34.76171875 45.3046875 C35.25671875 46.2121875 35.75171875 47.1196875 36.26171875 48.0546875 C38.7465557 53.9160493 38.70040778 60.43675612 37.2109375 66.57421875 C34.58889179 72.87458451 29.15162977 76.44256421 23.76171875 80.3046875 C22.91738281 80.92601563 22.07304687 81.54734375 21.203125 82.1875 C18.7567514 83.95072091 16.27564221 85.63951633 13.76171875 87.3046875 C13.02179688 87.81515625 12.281875 88.325625 11.51953125 88.8515625 C5.72004825 92.52525636 0.55870085 93.50474814 -6.23828125 92.3046875 C-13.97060965 89.67679653 -17.93136537 82.81256407 -22.23828125 76.3046875 C-23.0291466 75.1296686 -23.8208431 73.95520877 -24.61328125 72.78125 C-26.74375836 69.61282662 -28.85254086 66.43050956 -30.95605469 63.24414062 C-32.62862973 60.71425942 -34.31097531 58.19097441 -35.99462891 55.66845703 C-36.82072372 54.43045 -37.64592604 53.19184695 -38.47021484 51.95263672 C-40.63906666 48.69293721 -42.82021796 45.44236428 -45.01953125 42.203125 C-45.47457031 41.52958984 -45.92960937 40.85605469 -46.3984375 40.16210938 C-47.26701539 38.87696861 -48.13919663 37.59425297 -49.015625 36.31445312 C-53.72971893 29.32059245 -55.3599988 23.71166533 -54.23828125 15.3046875 C-51.90646388 8.97082079 -46.99969101 4.61492094 -41.23828125 1.3046875 C-35.43839673 -0.54992674 -30.27498932 -0.24032103 -24.73828125 2.0546875 C-21.51395404 3.27305236 -21.51395404 3.27305236 -18.2421875 2.61328125 C-16.93412318 1.85792016 -15.63208699 1.09203447 -14.3359375 0.31640625 C-9.77903703 -1.88142843 -4.7433031 -1.47348683 0 0 Z " fill="#51B7D4" transform="translate(126.23828125,1.6953125)"/>
<path d="M0 0 C-0.39832031 0.43570312 -0.79664063 0.87140625 -1.20703125 1.3203125 C-6.32300564 7.07111583 -9.3103226 11.61871147 -9.3984375 19.4609375 C-8.30310207 26.4410162 -5.01351074 31.91846417 -0.9375 37.5625 C0.05958048 38.97716963 1.05565365 40.39254971 2.05078125 41.80859375 C2.54916504 42.5135498 3.04754883 43.21850586 3.56103516 43.94482422 C5.67860449 46.96920471 7.71604154 50.04404471 9.75 53.125 C14.12365443 59.71670264 18.55356287 66.26970414 23 72.8125 C23.65967773 73.78654785 24.31935547 74.7605957 24.99902344 75.76416016 C25.92763184 77.12806885 25.92763184 77.12806885 26.875 78.51953125 C27.70644531 79.74313354 27.70644531 79.74313354 28.5546875 80.99145508 C29.98371516 83.09101346 29.98371516 83.09101346 32 85 C26.51567201 88.55740194 21.33270853 88.91241592 15 88 C7.27033219 85.41432351 3.29173096 78.4849317 -1 72 C-1.79086535 70.8249811 -2.58256185 69.65052127 -3.375 68.4765625 C-5.50547711 65.30813912 -7.61425961 62.12582206 -9.71777344 58.93945312 C-11.39034848 56.40957192 -13.07269406 53.88628691 -14.75634766 51.36376953 C-15.58244247 50.1257625 -16.40764479 48.88715945 -17.23193359 47.64794922 C-19.40078541 44.38824971 -21.58193671 41.13767678 -23.78125 37.8984375 C-24.23628906 37.22490234 -24.69132812 36.55136719 -25.16015625 35.85742188 C-26.02873414 34.57228111 -26.90091538 33.28956547 -27.77734375 32.00976562 C-32.49143768 25.01590495 -34.12171755 19.40697783 -33 11 C-30.66818263 4.66613329 -25.76140976 0.31023344 -20 -3 C-12.32263976 -5.44482928 -6.69054985 -3.98585949 0 0 Z " fill="#184D9E" transform="translate(105,6)"/>
<path d="M0 0 C3.61521768 1.45394624 5.12361044 3.21178768 7.25 6.4375 C9.78955268 10.2195806 12.39975496 13.91170004 15.125 17.5625 C17.9967805 21.48506609 20.40067945 25.42918687 22.67578125 29.71484375 C24.18110767 32.31253093 25.8913156 34.65683187 27.6875 37.0625 C31.15226383 41.73067416 34.34117274 46.52111339 37.4375 51.4375 C37.87473389 52.12400635 38.31196777 52.8105127 38.76245117 53.51782227 C39.16955322 54.17065186 39.57665527 54.82348145 39.99609375 55.49609375 C40.35888428 56.07544678 40.7216748 56.6547998 41.09545898 57.25170898 C43.97012911 62.80785278 43.51975907 68.82301688 41.8125 74.6875 C40.36279053 78.66909643 38.86784371 80.97398663 35 83 C31.80446619 82.81725252 30.43168421 82.45806327 28.21411133 80.10498047 C27.6755249 79.28400879 27.13693848 78.46303711 26.58203125 77.6171875 C25.97270752 76.70485352 25.36338379 75.79251953 24.7355957 74.85253906 C24.10097412 73.86995117 23.46635254 72.88736328 22.8125 71.875 C22.14758545 70.87178711 21.4826709 69.86857422 20.79760742 68.83496094 C19.4629927 66.81889928 18.1345199 64.79875703 16.8125 62.77441406 C14.89243336 59.83534654 12.94449411 56.9164259 10.98706055 54.00219727 C9.81387935 52.25205769 8.65033529 50.49582418 7.48828125 48.73828125 C5.61256476 45.90737443 3.70722784 43.09794893 1.79296875 40.29296875 C1.24600342 39.48633789 0.69903809 38.67970703 0.13549805 37.84863281 C-0.92648878 36.28299885 -1.99374418 34.72092097 -3.06713867 33.16308594 C-7.57912524 26.48501477 -10.32883423 20.17434392 -9 12 C-6.95597753 6.84515449 -4.61817189 3.13798859 0 0 Z " fill="#1E8FBE" transform="translate(104,7)"/>
<path d="M0 0 C4.87373061 2.97705712 8.88466436 6.27153395 10.50390625 11.890625 C11.51447152 18.99649447 10.76859537 25.0145224 6.50390625 30.890625 C2.27585869 35.11867256 -1.9539488 36.55487001 -7.80859375 37.328125 C-14.21494372 36.56804958 -18.93014965 33.80890652 -22.99609375 28.828125 C-25.78031622 23.37568933 -26.27925014 17.94642733 -25.49609375 11.890625 C-23.46099461 6.40346518 -19.82805321 2.55359797 -14.73046875 -0.25390625 C-9.62889965 -2.20712939 -5.00722151 -2.22543178 0 0 Z " fill="#20A3C6" transform="translate(177.49609375,12.109375)"/>
<path d="M0 0 C3.45211024 2.30140683 4.9826251 4.1448704 6.8125 7.875 C7.67172126 12.26754949 7.16075042 15.16510492 5.1875 19.1875 C2.4547424 22.27983097 0.74932468 23.61224492 -3.1875 24.875 C-8.17910167 25.16602978 -11.26217347 24.62682781 -15.1875 21.4375 C-19.00452351 16.54693862 -18.82633126 11.93077027 -18.1875 5.875 C-14.03116271 -1.39859027 -7.77939037 -2.74566719 0 0 Z " fill="#0D0D0D" transform="translate(171.1875,106.125)"/>
<path d="M0 0 C3.45211024 2.30140683 4.9826251 4.1448704 6.8125 7.875 C7.67172126 12.26754949 7.16075042 15.16510492 5.1875 19.1875 C2.4547424 22.27983097 0.74932468 23.61224492 -3.1875 24.875 C-8.17910167 25.16602978 -11.26217347 24.62682781 -15.1875 21.4375 C-19.00452351 16.54693862 -18.82633126 11.93077027 -18.1875 5.875 C-14.03116271 -1.39859027 -7.77939037 -2.74566719 0 0 Z " fill="#0C0C0C" transform="translate(116.1875,106.125)"/>
<path d="M0 0 C3.96 0 7.92 0 12 0 C12 0.66 12 1.32 12 2 C11.01 2.495 11.01 2.495 10 3 C10.20496094 3.59167969 10.40992188 4.18335937 10.62109375 4.79296875 C11.9997571 8.83660816 13.31750847 12.76855249 14 17 C14.66 17 15.32 17 16 17 C16.47970123 15.25014646 16.95873924 13.50011109 17.4375 11.75 C17.70433594 10.77546875 17.97117187 9.8009375 18.24609375 8.796875 C18.85544584 6.53627347 19.44238255 4.27377991 20 2 C19.34 2 18.68 2 18 2 C18 1.34 18 0.68 18 0 C24.93 0 31.86 0 39 0 C39 0.66 39 1.32 39 2 C38.34 2.33 37.68 2.66 37 3 C37 9.6 37 16.2 37 23 C37.66 23.33 38.32 23.66 39 24 C39 24.66 39 25.32 39 26 C34.71 26 30.42 26 26 26 C26 25.34 26 24.68 26 24 C26.66 23.67 27.32 23.34 28 23 C28 16.4 28 9.8 28 3 C26.68 3 25.36 3 24 3 C22.68608882 6.27026822 21.37411484 9.54131018 20.0625 12.8125 C19.50272461 14.2056543 19.50272461 14.2056543 18.93164062 15.62695312 C18.39506836 16.9659668 18.39506836 16.9659668 17.84765625 18.33203125 C17.51773682 19.15421143 17.18781738 19.9763916 16.84790039 20.82348633 C16.18283658 22.53066857 15.57937734 24.26186797 15 26 C12.63549805 25.78442383 12.63549805 25.78442383 10 25 C8.72973633 23.0222168 8.72973633 23.0222168 7.83203125 20.44921875 C7.49623047 19.52302734 7.16042969 18.59683594 6.81445312 17.64257812 C6.48380859 16.66740234 6.15316406 15.69222656 5.8125 14.6875 C5.13293791 12.77423196 4.45199857 10.86145241 3.76953125 8.94921875 C3.33024292 7.67050903 3.33024292 7.67050903 2.88208008 6.3659668 C1.92782915 3.67801403 1.92782915 3.67801403 0 0 Z " fill="#101010" transform="translate(1,105)"/>
<path d="M0 0 C3.63 0 7.26 0 11 0 C11.9765625 2.47395833 12.953125 4.94791667 13.9296875 7.421875 C14.8646709 9.6740248 15.87780794 11.83649459 17 14 C17.27714844 13.07316406 17.55429688 12.14632812 17.83984375 11.19140625 C18.20207031 9.99386719 18.56429687 8.79632813 18.9375 7.5625 C19.29714844 6.36753906 19.65679687 5.17257813 20.02734375 3.94140625 C21 1 21 1 22 0 C24.01964199 -0.07244053 26.04167124 -0.08377188 28.0625 -0.0625 C29.16722656 -0.05347656 30.27195313 -0.04445313 31.41015625 -0.03515625 C32.26480469 -0.02355469 33.11945313 -0.01195313 34 0 C34 0.66 34 1.32 34 2 C33.01 2.33 32.02 2.66 31 3 C31 9.6 31 16.2 31 23 C31.99 23.33 32.98 23.66 34 24 C34 24.66 34 25.32 34 26 C29.38 26 24.76 26 20 26 C20 25.34 20 24.68 20 24 C20.99 23.67 21.98 23.34 23 23 C23 17.06 23 11.12 23 5 C20.69 11.93 18.38 18.86 16 26 C15.01 26 14.02 26 13 26 C10.69 18.74 8.38 11.48 6 4 C6 10.27 6 16.54 6 23 C6.99 23.33 7.98 23.66 9 24 C9 24.66 9 25.32 9 26 C6.03 26 3.06 26 0 26 C0 25.34 0 24.68 0 24 C0.66 23.67 1.32 23.34 2 23 C2 16.4 2 9.8 2 3 C1.34 2.67 0.68 2.34 0 2 C0 1.34 0 0.68 0 0 Z " fill="#0E0E0E" transform="translate(180,105)"/>
<path d="M0 0 C5.4380616 -1.14023872 5.4380616 -1.14023872 9 0 C12.91542183 3.96540593 15.94070554 8.35611824 19 13 C19.99 14.485 19.99 14.485 21 16 C21.33 11.71 21.66 7.42 22 3 C20.68 2.67 19.36 2.34 18 2 C18 1.34 18 0.68 18 0 C21.3 0 24.6 0 28 0 C28 0.66 28 1.32 28 2 C27.01 2.33 26.02 2.66 25 3 C24.67 10.59 24.34 18.18 24 26 C19.79476677 24.94869169 19.31654019 24.64507489 16.80078125 21.47265625 C16.23166016 20.76302734 15.66253906 20.05339844 15.07617188 19.32226562 C14.49416016 18.57654297 13.91214844 17.83082031 13.3125 17.0625 C12.71888672 16.32064453 12.12527344 15.57878906 11.51367188 14.81445312 C7.18539987 9.37079973 7.18539987 9.37079973 6 7 C6 12.28 6 17.56 6 23 C6.99 23.33 7.98 23.66 9 24 C9 24.66 9 25.32 9 26 C6.03 26 3.06 26 0 26 C0 25.34 0 24.68 0 24 C0.66 23.67 1.32 23.34 2 23 C2 16.4 2 9.8 2 3 C1.34 2.67 0.68 2.34 0 2 C0 1.34 0 0.68 0 0 Z " fill="#080808" transform="translate(42,105)"/>
<path d="M0 0 C7.92 0 15.84 0 24 0 C24 2.97 24 5.94 24 9 C23.34 9 22.68 9 22 9 C21.71125 8.195625 21.4225 7.39125 21.125 6.5625 C20.26737432 3.8673532 20.26737432 3.8673532 18 3 C15.6670134 2.95977609 13.33293334 2.95679753 11 3 C10.67 5.97 10.34 8.94 10 12 C12.49552484 11.21869929 12.49552484 11.21869929 15 10 C15.33 9.01 15.66 8.02 16 7 C16.66 7 17.32 7 18 7 C18 10.96 18 14.92 18 19 C17.34 19 16.68 19 16 19 C15.67 18.01 15.34 17.02 15 16 C12.49552484 14.78130071 12.49552484 14.78130071 10 14 C10.11362262 15.4800841 10.24122908 16.95910074 10.375 18.4375 C10.44460937 19.26121094 10.51421875 20.08492187 10.5859375 20.93359375 C10.72257812 21.61550781 10.85921875 22.29742187 11 23 C11.66 23.33 12.32 23.66 13 24 C13 24.66 13 25.32 13 26 C8.71 26 4.42 26 0 26 C0 25.34 0 24.68 0 24 C0.66 23.67 1.32 23.34 2 23 C2 16.4 2 9.8 2 3 C1.34 2.67 0.68 2.34 0 2 C0 1.34 0 0.68 0 0 Z " fill="#0F0F0F" transform="translate(71,105)"/>
<path d="M0 0 C7.59 0 15.18 0 23 0 C23 3.3 23 6.6 23 10 C22.34 9.01 21.68 8.02 21 7 C18.29856833 4.10461298 18.29856833 4.10461298 15 2 C15.33 8.93 15.66 15.86 16 23 C16.99 23.33 17.98 23.66 19 24 C19 24.66 19 25.32 19 26 C14.38 26 9.76 26 5 26 C5 25.34 5 24.68 5 24 C5.66 23.67 6.32 23.34 7 23 C7.33 16.07 7.66 9.14 8 2 C2.87998156 4.31051039 2.87998156 4.31051039 2.1875 7.6875 C2.0946875 8.8321875 2.0946875 8.8321875 2 10 C1.34 10 0.68 10 0 10 C0 6.7 0 3.4 0 0 Z " fill="#0E0E0E" transform="translate(240,105)"/>
<path d="M0 0 C1.74216797 0.02707031 1.74216797 0.02707031 3.51953125 0.0546875 C4.39996094 0.07789062 5.28039062 0.10109375 6.1875 0.125 C6.1875 3.425 6.1875 6.725 6.1875 10.125 C5.5275 10.125 4.8675 10.125 4.1875 10.125 C3.713125 9.155625 3.23875 8.18625 2.75 7.1875 C1.48556053 4.32022563 1.48556053 4.32022563 0.1875 3.125 C-2.15194736 3.41230055 -4.4864143 3.74436779 -6.8125 4.125 C-7.82256939 7.50547418 -8.01014268 10.66647056 -8.0625 14.1875 C-8.08828125 15.23035156 -8.1140625 16.27320313 -8.140625 17.34765625 C-8.04386991 20.12922342 -8.04386991 20.12922342 -6.453125 21.97265625 C-4.10802934 23.61980677 -2.61206644 23.54493497 0.1875 23.125 C2.6923111 21.24639167 3.17450625 20.16398126 4.1875 17.125 C5.1775 17.125 6.1675 17.125 7.1875 17.125 C6.34938269 20.89652787 5.75278894 22.69758641 2.625 25.0625 C-1.81482955 26.43481095 -5.35813947 26.49494145 -9.8125 25.125 C-12.51802388 22.92676185 -14.26028333 21.22943333 -15.8125 18.125 C-16.31242739 13.03557521 -16.62942667 8.60757063 -14.125 4.0625 C-9.65111182 0.3141072 -5.73982032 -0.11595597 0 0 Z " fill="#0D0D0D" transform="translate(141.8125,104.875)"/>
<path d="M0 0 C3.63 0 7.26 0 11 0 C11 0.66 11 1.32 11 2 C11.99 1.34 12.98 0.68 14 0 C17.1875 -0.125 17.1875 -0.125 20 0 C19.67 1.32 19.34 2.64 19 4 C19 3.01 19 2.02 19 1 C17.68 1.33 16.36 1.66 15 2 C16.24546405 5.73639216 17.63404953 6.18756513 21 8 C20.125 12.875 20.125 12.875 19 14 C17.58429877 14.08651611 16.164405 14.10704904 14.74609375 14.09765625 C13.89208984 14.09443359 13.03808594 14.09121094 12.15820312 14.08789062 C11.26037109 14.07951172 10.36253906 14.07113281 9.4375 14.0625 C8.53580078 14.05798828 7.63410156 14.05347656 6.70507812 14.04882812 C4.46998686 14.03700225 2.23502563 14.0205222 0 14 C0.66 13.67 1.32 13.34 2 13 C2 9.04 2 5.08 2 1 C1.34 0.67 0.68 0.34 0 0 Z " fill="#ECECEC" transform="translate(114,146)"/>
<path d="M0 0 C4.29 0 8.58 0 13 0 C13 0.66 13 1.32 13 2 C12.01 2.495 12.01 2.495 11 3 C11 9.6 11 16.2 11 23 C11.66 23.33 12.32 23.66 13 24 C13 24.66 13 25.32 13 26 C8.71 26 4.42 26 0 26 C0 25.34 0 24.68 0 24 C0.66 23.67 1.32 23.34 2 23 C2 16.4 2 9.8 2 3 C1.34 2.67 0.68 2.34 0 2 C0 1.34 0 0.68 0 0 Z " fill="#0F0F0F" transform="translate(225,105)"/>
<path d="M0 0 C1.423125 0.4021875 1.423125 0.4021875 2.875 0.8125 C4.38438632 3.83127265 4.01866437 6.94329585 4 10.25 C4.00386719 10.93126953 4.00773438 11.61253906 4.01171875 12.31445312 C4.0056374 15.41898046 3.86390312 17.84579065 2.875 20.8125 C-2.56242975 22.14164949 -2.56242975 22.14164949 -4.80078125 20.83203125 C-6.86000703 17.69156007 -6.55809339 14.44010943 -6.5 10.8125 C-6.51160156 10.08804688 -6.52320313 9.36359375 -6.53515625 8.6171875 C-6.51839708 5.58936421 -6.49226394 3.36879686 -4.796875 0.80078125 C-3.125 -0.1875 -3.125 -0.1875 0 0 Z " fill="#F1F1F1" transform="translate(166.125,107.1875)"/>
<path d="M0 0 C2.4375 0.8125 2.4375 0.8125 4.4375 2.8125 C4.6098963 5.33416109 4.67000592 7.73203713 4.625 10.25 C4.62435547 10.93126953 4.62371094 11.61253906 4.62304688 12.31445312 C4.59577338 15.40847947 4.42239776 17.85780673 3.4375 20.8125 C-1.99992975 22.14164949 -1.99992975 22.14164949 -4.23828125 20.83203125 C-6.29750703 17.69156007 -5.99559339 14.44010943 -5.9375 10.8125 C-5.94910156 10.08804688 -5.96070312 9.36359375 -5.97265625 8.6171875 C-5.95578079 5.56835362 -5.93867144 3.3675954 -4.19921875 0.80078125 C-2.5625 -0.1875 -2.5625 -0.1875 0 0 Z " fill="#F2F2F2" transform="translate(110.5625,107.1875)"/>
<path d="M0 0 C3.96 0 7.92 0 12 0 C12 0.66 12 1.32 12 2 C11.01 2.495 11.01 2.495 10 3 C10.20496094 3.59167969 10.40992188 4.18335937 10.62109375 4.79296875 C11.9997571 8.83660816 13.31750847 12.76855249 14 17 C14.99 17 15.98 17 17 17 C16.34 19.97 15.68 22.94 15 26 C12.63549805 25.78442383 12.63549805 25.78442383 10 25 C8.72973633 23.0222168 8.72973633 23.0222168 7.83203125 20.44921875 C7.49623047 19.52302734 7.16042969 18.59683594 6.81445312 17.64257812 C6.48380859 16.66740234 6.15316406 15.69222656 5.8125 14.6875 C5.13293791 12.77423196 4.45199857 10.86145241 3.76953125 8.94921875 C3.33024292 7.67050903 3.33024292 7.67050903 2.88208008 6.3659668 C1.92782915 3.67801403 1.92782915 3.67801403 0 0 Z " fill="#0A0A0A" transform="translate(1,105)"/>
<path d="M0 0 C0.66 0.33 1.32 0.66 2 1 C2 4.96 2 8.92 2 13 C1.34 12.67 0.68 12.34 0 12 C-0.33 12.66 -0.66 13.32 -1 14 C-2.43655854 14.08131463 -3.8744483 14.13933559 -5.3125 14.1875 C-6.51326172 14.23970703 -6.51326172 14.23970703 -7.73828125 14.29296875 C-10 14 -10 14 -11.765625 12.703125 C-13.84645235 9.83211005 -13.41903757 7.41216306 -13 4 C-9.99090275 -1.10238229 -5.34031882 -0.62887924 0 0 Z " fill="#EFEFEF" transform="translate(114,146)"/>
<path d="M0 0 C3.96 0 7.92 0 12 0 C12 0.66 12 1.32 12 2 C11.01 2.33 10.02 2.66 9 3 C9 9.6 9 16.2 9 23 C9.99 23.33 10.98 23.66 12 24 C12 24.66 12 25.32 12 26 C7.38 26 2.76 26 -2 26 C-2 25.34 -2 24.68 -2 24 C-1.01 23.67 -0.02 23.34 1 23 C1.33 16.07 1.66 9.14 2 2 C1.34 2 0.68 2 0 2 C0 1.34 0 0.68 0 0 Z " fill="#020202" transform="translate(202,105)"/>
<path d="M0 0 C3.56297605 1.95115355 4.81150304 3.81050607 6.625 7.4375 C7.484462 11.79558003 6.95706223 14.73352806 5.0625 18.75 C2.06043891 22.05996479 -0.1943327 22.99034593 -4.375 24.4375 C-4.375 23.4475 -4.375 22.4575 -4.375 21.4375 C-3.715 21.4375 -3.055 21.4375 -2.375 21.4375 C-2.32109643 18.49975537 -2.2813745 15.56299768 -2.25 12.625 C-2.23324219 11.79162109 -2.21648437 10.95824219 -2.19921875 10.09960938 C-2.19277344 9.29716797 -2.18632813 8.49472656 -2.1796875 7.66796875 C-2.16921387 6.92957764 -2.15874023 6.19118652 -2.14794922 5.43041992 C-2.25758521 3.11859324 -2.25758521 3.11859324 -4.375 0.4375 C-2.375 -0.5625 -2.375 -0.5625 0 0 Z " fill="#151515" transform="translate(116.375,106.5625)"/>
<path d="M0 0 C3.57849992 0.29820833 4.76226484 0.74245358 7.25 3.4375 C10.10631663 7.61996364 10.65429094 10.98065375 10 16 C8.08138918 20.06745493 6.30837284 22.10512138 2.25 23.875 C0.64125 24.431875 0.64125 24.431875 -1 25 C-1 24.01 -1 23.02 -1 22 C-0.34 22 0.32 22 1 22 C1.02700675 19.08327116 1.04684237 16.16679323 1.0625 13.25 C1.07087891 12.425 1.07925781 11.6 1.08789062 10.75 C1.09111328 9.95078125 1.09433594 9.1515625 1.09765625 8.328125 C1.10289307 7.5949707 1.10812988 6.86181641 1.11352539 6.10644531 C0.9975109 3.9538151 0.59073271 2.0685865 0 0 Z " fill="#131313" transform="translate(168,106)"/>
<path d="M0 0 C9.00105708 -0.61839323 9.00105708 -0.61839323 12.625 1.625 C14.42208081 4.72904866 14.58890625 6.46656253 14 10 C12.625 12.375 12.625 12.375 10 14 C6.63974091 14.32654555 3.36439507 14.23114165 0 14 C0.66 13.67 1.32 13.34 2 13 C2 9.04 2 5.08 2 1 C1.34 0.67 0.68 0.34 0 0 Z " fill="#E4E4E4" transform="translate(211,146)"/>
<path d="M0 0 C1.72974441 0.00015918 3.45949355 0.0058569 5.18920898 0.01586914 C6.09783188 0.01728409 7.00645477 0.01869904 7.94261169 0.02015686 C10.85687494 0.02577346 13.77106254 0.03832874 16.68530273 0.05102539 C18.65600475 0.05603825 20.62670797 0.06060153 22.59741211 0.06469727 C27.43923832 0.07574828 32.28100768 0.09302401 37.12280273 0.11352539 C37.12280273 0.44352539 37.12280273 0.77352539 37.12280273 1.11352539 C36.24237305 1.2230957 35.36194336 1.33266602 34.45483398 1.44555664 C33.29338867 1.60411133 32.13194336 1.76266602 30.93530273 1.92602539 C29.78674805 2.0768457 28.63819336 2.22766602 27.45483398 2.38305664 C24.09561546 2.92443826 24.09561546 2.92443826 21.46655273 4.76977539 C19.12280273 6.11352539 19.12280273 6.11352539 16.94702148 5.75024414 C16.2419043 5.43700195 15.53678711 5.12375977 14.81030273 4.80102539 C7.18594233 1.88508623 1.53034197 2.93886572 -5.87719727 6.11352539 C-4.80515099 0.14069613 -4.80515099 0.14069613 0 0 Z " fill="#EBF2F8" transform="translate(86.877197265625,-0.113525390625)"/>
<path d="M0 0 C1.45823212 -0.0270043 2.91660675 -0.04639787 4.375 -0.0625 C5.18710938 -0.07410156 5.99921875 -0.08570313 6.8359375 -0.09765625 C9 0 9 0 11 1 C10.773125 2.03125 10.54625 3.0625 10.3125 4.125 C9.96098535 8.4837817 10.76055351 10.32730775 13 14 C11.1875 13.8125 11.1875 13.8125 9 13 C7.375 10.5 7.375 10.5 6 8 C5.34 7.67 4.68 7.34 4 7 C4 8.98 4 10.96 4 13 C4.99 13.33 5.98 13.66 7 14 C4.69 14 2.38 14 0 14 C0.66 13.67 1.32 13.34 2 13 C2 9.04 2 5.08 2 1 C1.34 0.67 0.68 0.34 0 0 Z " fill="#2B2B2B" transform="translate(64,146)"/>
<path d="M0 0 C0.33 0 0.66 0 1 0 C1 6.93 1 13.86 1 21 C-1.64 21.99 -4.28 22.98 -7 24 C-4.86662595 15.93519961 -2.49320448 7.96053614 0 0 Z " fill="#D9D9D9" transform="translate(203,107)"/>
<path d="M0 0 C1.45792884 -0.05399736 2.91642712 -0.09279177 4.375 -0.125 C5.18710938 -0.14820313 5.99921875 -0.17140625 6.8359375 -0.1953125 C9 0 9 0 11 2 C10.44444444 6.55555556 10.44444444 6.55555556 9 8 C7.33382885 8.04063832 5.66611905 8.042721 4 8 C4 9.65 4 11.3 4 13 C4.66 13.33 5.32 13.66 6 14 C4.02 14 2.04 14 0 14 C0.66 13.67 1.32 13.34 2 13 C2 9.04 2 5.08 2 1 C1.34 0.67 0.68 0.34 0 0 Z " fill="#242424" transform="translate(142,146)"/>
<path d="M0 0 C9.00105708 -0.61839323 9.00105708 -0.61839323 12.625 1.625 C14.42208081 4.72904866 14.58890625 6.46656253 14 10 C12.625 12.375 12.625 12.375 10 14 C6.63974091 14.32654555 3.36439507 14.23114165 0 14 C0.66 13.67 1.32 13.34 2 13 C2 9.04 2 5.08 2 1 C1.34 0.67 0.68 0.34 0 0 Z M4 1 C4 4.96 4 8.92 4 13 C6.3431213 12.74438677 8.67843403 12.40729228 11 12 C12.41441874 9.17116253 12.31900332 7.12623255 12 4 C10.34626504 2.00966359 10.34626504 2.00966359 8 1 C6.68 1 5.36 1 4 1 Z " fill="#121212" transform="translate(211,146)"/>
<path d="M0 0 C3.96 0 7.92 0 12 0 C12 0.99 12 1.98 12 3 C11.34 3 10.68 3 10 3 C10 2.34 10 1.68 10 1 C9.01 1 8.02 1 7 1 C7 4.96 7 8.92 7 13 C7.66 13.33 8.32 13.66 9 14 C7.02 14 5.04 14 3 14 C3.33 9.71 3.66 5.42 4 1 C3.01 1 2.02 1 1 1 C0.67 1.66 0.34 2.32 0 3 C0 2.01 0 1.02 0 0 Z " fill="#3B3B3B" transform="translate(169,146)"/>
<path d="M0 0 C1.4540625 0.0309375 1.4540625 0.0309375 2.9375 0.0625 C2.6075 1.3825 2.2775 2.7025 1.9375 4.0625 C1.6075 3.4025 1.2775 2.7425 0.9375 2.0625 C-0.0525 2.0625 -1.0425 2.0625 -2.0625 2.0625 C-0.81703595 5.79889216 0.57154953 6.25006513 3.9375 8.0625 C3.0625 12.9375 3.0625 12.9375 1.9375 14.0625 C-0.39547433 14.10342937 -2.72955225 14.10491723 -5.0625 14.0625 C-5.0625 12.7425 -5.0625 11.4225 -5.0625 10.0625 C-4.4025 10.0625 -3.7425 10.0625 -3.0625 10.0625 C-3.0625 11.0525 -3.0625 12.0425 -3.0625 13.0625 C-1.4125 12.7325 0.2375 12.4025 1.9375 12.0625 C1.0403125 11.1653125 1.0403125 11.1653125 0.125 10.25 C-0.596875 9.528125 -1.31875 8.80625 -2.0625 8.0625 C-2.660625 7.5675 -3.25875 7.0725 -3.875 6.5625 C-4.266875 6.0675 -4.65875 5.5725 -5.0625 5.0625 C-4.59175166 1.06113911 -4.12566671 0.08419728 0 0 Z " fill="#2B2B2B" transform="translate(47.0625,145.9375)"/>
<path d="M0 0 C3.3 0 6.6 0 10 0 C9.67 0.99 9.34 1.98 9 3 C9 2.34 9 1.68 9 1 C7.35 1 5.7 1 4 1 C4 2.65 4 4.3 4 6 C4.99 6 5.98 6 7 6 C7.33 5.34 7.66 4.68 8 4 C8 5.65 8 7.3 8 9 C7.67 8.34 7.34 7.68 7 7 C6.01 7 5.02 7 4 7 C4 8.98 4 10.96 4 13 C5.65 13 7.3 13 9 13 C9 12.34 9 11.68 9 11 C9.66 11 10.32 11 11 11 C11 11.99 11 12.98 11 14 C7.37 14 3.74 14 0 14 C0.66 13.67 1.32 13.34 2 13 C2 9.04 2 5.08 2 1 C1.34 0.67 0.68 0.34 0 0 Z " fill="#0C0C0C" transform="translate(114,146)"/>
<path d="M0 0 C3.3 0 6.6 0 10 0 C9.67 0.99 9.34 1.98 9 3 C9 2.34 9 1.68 9 1 C7.35 1 5.7 1 4 1 C4 2.65 4 4.3 4 6 C4.99 6 5.98 6 7 6 C7.33 5.34 7.66 4.68 8 4 C8 5.65 8 7.3 8 9 C7.67 8.34 7.34 7.68 7 7 C6.01 7 5.02 7 4 7 C4 8.98 4 10.96 4 13 C5.65 13 7.3 13 9 13 C9 12.34 9 11.68 9 11 C9.66 11 10.32 11 11 11 C11 11.99 11 12.98 11 14 C7.37 14 3.74 14 0 14 C0.66 13.67 1.32 13.34 2 13 C2 9.04 2 5.08 2 1 C1.34 0.67 0.68 0.34 0 0 Z " fill="#0C0C0C" transform="translate(52,146)"/>
<path d="M0 0 C1.98 0 3.96 0 6 0 C6.33 2.97 6.66 5.94 7 9 C7.66 9 8.32 9 9 9 C10.81602517 4.46167247 10.81602517 4.46167247 10 0 C11.65 0 13.3 0 15 0 C14.01 0.495 14.01 0.495 13 1 C12.87625 1.680625 12.7525 2.36125 12.625 3.0625 C11.77144637 7.07420206 9.92035443 10.40045194 8 14 C4.97627311 10.68829912 3.96744011 7.14184128 2.74609375 2.92578125 C2.17323701 0.8064259 2.17323701 0.8064259 0 0 Z " fill="#343434" transform="translate(153,146)"/>
<path d="M0 0 C1.65 0 3.3 0 5 0 C5.33 1.32 5.66 2.64 6 4 C5.34 4 4.68 4 4 4 C4.08701172 5.73636719 4.08701172 5.73636719 4.17578125 7.5078125 C4.22270265 9.04683448 4.26820026 10.58590033 4.3125 12.125 C4.35439453 12.88554687 4.39628906 13.64609375 4.43945312 14.4296875 C4.53121736 18.68754803 4.26200485 21.21684417 1.48046875 24.5546875 C0.66191406 25.36164062 -0.15664062 26.16859375 -1 27 C-1.66 26.67 -2.32 26.34 -3 26 C-2.360625 25.071875 -1.72125 24.14375 -1.0625 23.1875 C2.57684663 17.56305521 2.39934675 12.51956794 2 6 C1.14284151 2.49170286 1.14284151 2.49170286 0 0 Z " fill="#D5F3FA" transform="translate(185,18)"/>
<path d="M0 0 C-1.28965176 1.37562854 -2.62689293 2.70766393 -4 4 C-4.66 4 -5.32 4 -6 4 C-6 2.35 -6 0.7 -6 -1 C-10.08839751 -2.06495145 -10.08839751 -2.06495145 -14 -1 C-16.87336805 0.43668403 -18.94983694 -0.30678112 -22 -1 C-15.74003896 -7.25996104 -6.56927522 -3.91361077 0 0 Z " fill="#265496" transform="translate(105,6)"/>
<path d="M0 0 C1.4540625 0.0309375 1.4540625 0.0309375 2.9375 0.0625 C2.6075 1.3825 2.2775 2.7025 1.9375 4.0625 C1.9375 3.0725 1.9375 2.0825 1.9375 1.0625 C0.6175 1.3925 -0.7025 1.7225 -2.0625 2.0625 C-0.81703595 5.79889216 0.57154953 6.25006513 3.9375 8.0625 C3.0625 12.9375 3.0625 12.9375 1.9375 14.0625 C-0.39547433 14.10342937 -2.72955225 14.10491723 -5.0625 14.0625 C-5.0625 12.7425 -5.0625 11.4225 -5.0625 10.0625 C-4.4025 10.0625 -3.7425 10.0625 -3.0625 10.0625 C-3.0625 11.0525 -3.0625 12.0425 -3.0625 13.0625 C-1.7425 12.7325 -0.4225 12.4025 0.9375 12.0625 C0.9375 11.0725 0.9375 10.0825 0.9375 9.0625 C-2.00486782 6.85081775 -2.00486782 6.85081775 -5.0625 5.0625 C-3.9375 0.08035714 -3.9375 0.08035714 0 0 Z " fill="#232323" transform="translate(131.0625,145.9375)"/>
<path d="M0 0 C1.98 0 3.96 0 6 0 C5.67 0.66 5.34 1.32 5 2 C5.60760482 4.3494053 6.27129528 6.68529088 7 9 C7.66 9 8.32 9 9 9 C10.81602517 4.46167247 10.81602517 4.46167247 10 0 C11.65 0 13.3 0 15 0 C14.01 0.495 14.01 0.495 13 1 C12.87625 1.680625 12.7525 2.36125 12.625 3.0625 C11.77144637 7.07420206 9.92035443 10.40045194 8 14 C5.87838666 11.87838666 5.07013751 10.2266841 3.875 7.5 C3.52179688 6.7059375 3.16859375 5.911875 2.8046875 5.09375 C2 3 2 3 2 1 C1.34 0.67 0.68 0.34 0 0 Z " fill="#303030" transform="translate(77,146)"/>
<path d="M0 0 C-0.33 1.32 -0.66 2.64 -1 4 C-1.33 3.34 -1.66 2.68 -2 2 C-3.98 2.33 -5.96 2.66 -8 3 C-8.16677282 6.41656024 -8.16677282 6.41656024 -8 10 C-5.64046906 12.35953094 -4.22104383 12.49141413 -1 13 C-1 12.01 -1 11.02 -1 10 C-0.34 10 0.32 10 1 10 C1 11.32 1 12.64 1 14 C-0.43655854 14.08131463 -1.8744483 14.13933559 -3.3125 14.1875 C-4.51326172 14.23970703 -4.51326172 14.23970703 -5.73828125 14.29296875 C-8 14 -8 14 -9.765625 12.703125 C-11.84645235 9.83211005 -11.41903757 7.41216306 -11 4 C-8.07275826 -0.56649711 -5.15004683 -0.39615745 0 0 Z " fill="#292929" transform="translate(112,146)"/>
<path d="M0 0 C2.64 0 5.28 0 8 0 C6.68 0.33 5.36 0.66 4 1 C4 2.65 4 4.3 4 6 C5.32 6 6.64 6 8 6 C7.67 6.99 7.34 7.98 7 9 C6.01 8.34 5.02 7.68 4 7 C4 8.98 4 10.96 4 13 C4.99 13.33 5.98 13.66 7 14 C4.69 14 2.38 14 0 14 C0.66 13.67 1.32 13.34 2 13 C2 9.04 2 5.08 2 1 C1.34 0.67 0.68 0.34 0 0 Z " fill="#282828" transform="translate(64,146)"/>
<path d="M0 0 C-1 3 -1 3 -3 4 C-3.69040574 5.65697379 -4.3530635 7.3255761 -5 9 C-5.515625 9.763125 -6.03125 10.52625 -6.5625 11.3125 C-8.49110336 14.91814977 -8.65572069 17.93750416 -9 22 C-9.33 22 -9.66 22 -10 22 C-10.64352377 14.22051261 -10.0925022 9.08231248 -5 3 C-2.30681818 0 -2.30681818 0 0 0 Z " fill="#2A5394" transform="translate(82,6)"/>
<path d="M0 0 C3.68530899 1.1845636 5.44754048 3.43051893 7.2421875 6.80078125 C9.3453195 12.90420041 8.61077251 19.21452812 6 25 C4.79779797 21.46905698 5.20467651 18.87101018 5.9375 15.25 C6.13214844 14.26515625 6.32679688 13.2803125 6.52734375 12.265625 C6.76130859 11.14414062 6.76130859 11.14414062 7 10 C6.34 10 5.68 10 5 10 C3.92474806 7.34771188 2.90543849 4.71631546 2 2 C1.34 2 0.68 2 0 2 C0 1.34 0 0.68 0 0 Z " fill="#3BA1BC" transform="translate(180,15)"/>
<path d="M0 0 C0.33 0 0.66 0 1 0 C1.33 5.28 1.66 10.56 2 16 C2.99 16.33 3.98 16.66 5 17 C5 17.66 5 18.32 5 19 C2.03 19 -0.94 19 -4 19 C-4 18.34 -4 17.68 -4 17 C-3.01 16.34 -2.02 15.68 -1 15 C-0.61588725 12.390379 -0.39706803 9.9941926 -0.3125 7.375 C-0.27833984 6.66859375 -0.24417969 5.9621875 -0.20898438 5.234375 C-0.12648692 3.49014312 -0.06156665 1.74509605 0 0 Z " fill="#070707" transform="translate(184,112)"/>
<path d="M0 0 C2 1 2 1 2.60546875 2.703125 C4.04675269 11.09396617 3.46816419 17.73923319 -1 25 C-1.58984375 23.1328125 -1.58984375 23.1328125 -2 21 C-1.525625 20.29875 -1.05125 19.5975 -0.5625 18.875 C1.69927627 14.71333166 1.44830899 10.65551644 1 6 C0.67 5.67 0.34 5.34 0 5 C-0.04063832 3.33382885 -0.042721 1.66611905 0 0 Z " fill="#6BB6CC" transform="translate(161,49)"/>
<path d="M0 0 C0.33 0.66 0.66 1.32 1 2 C0.01 2.33 -0.98 2.66 -2 3 C-2.33 3.66 -2.66 4.32 -3 5 C-5.06640625 5.4140625 -5.06640625 5.4140625 -7.5625 5.625 C-8.38878906 5.69976562 -9.21507812 5.77453125 -10.06640625 5.8515625 C-11.02353516 5.92503906 -11.02353516 5.92503906 -12 6 C-12.33 5.01 -12.66 4.02 -13 3 C-12.31292969 2.86722656 -11.62585938 2.73445313 -10.91796875 2.59765625 C-9.56638672 2.33275391 -9.56638672 2.33275391 -8.1875 2.0625 C-6.84751953 1.80146484 -6.84751953 1.80146484 -5.48046875 1.53515625 C-2.88602829 1.02258847 -2.88602829 1.02258847 0 0 Z " fill="#E2F8FC" transform="translate(179,46)"/>
<path d="M0 0 C0.66 0.33 1.32 0.66 2 1 C-1.13922331 5.52048157 -4.21495828 7.51545911 -9 10 C-9.66 9.34 -10.32 8.68 -11 8 C-7.37 5.36 -3.74 2.72 0 0 Z " fill="#DEF3FA" transform="translate(151,80)"/>
<path d="M0 0 C3.875 1.75 3.875 1.75 5 4 C5.4069579 7.74401272 5.49904726 9.36787347 3.125 12.375 C1 14 1 14 -1 14 C-1 13.34 -1 12.68 -1 12 C-0.01 12 0.98 12 2 12 C2.53673893 6.63909407 2.53673893 6.63909407 0.5 2 C0.005 1.67 -0.49 1.34 -1 1 C-0.67 0.67 -0.34 0.34 0 0 Z " fill="#363636" transform="translate(220,146)"/>
<path d="M0 0 C0.99 0.66 1.98 1.32 3 2 C1.35 6.29 -0.3 10.58 -2 15 C-2.66 14.67 -3.32 14.34 -4 14 C-3.52188823 12.22888156 -3.0424722 10.45811517 -2.5625 8.6875 C-2.29566406 7.70136719 -2.02882813 6.71523437 -1.75390625 5.69921875 C-1.21920575 3.78482474 -0.62855462 1.88566385 0 0 Z " fill="#242424" transform="translate(21,108)"/>
<path d="M0 0 C1.98 0.66 3.96 1.32 6 2 C5.01 2.495 5.01 2.495 4 3 C4.350625 3.825 4.70125 4.65 5.0625 5.5 C6.22335775 9.83386892 5.75705178 12.60909969 5 17 C4.67 17 4.34 17 4 17 C3.87882813 16.10796875 3.75765625 15.2159375 3.6328125 14.296875 C3.46523437 13.12640625 3.29765625 11.9559375 3.125 10.75 C2.96257812 9.58984375 2.80015625 8.4296875 2.6328125 7.234375 C2.08179569 4.41806687 1.44203518 2.44782443 0 0 Z " fill="#CDF0F7" transform="translate(160,46)"/>
<path d="M0 0 C0.6171875 1.82421875 0.6171875 1.82421875 1 4 C-1 7 -1 7 -3 10 C-3.79682803 13.73225344 -3.79682803 13.73225344 -4 17 C-4.33 17 -4.66 17 -5 17 C-5.74521523 9.84593383 -4.34707015 5.69776694 0 0 Z " fill="#36A1BD" transform="translate(157,16)"/>
<path d="M0 0 C3.8665284 3.222107 4.88059018 6.14922412 6 11 C4.02 10.01 2.04 9.02 0 8 C0 5.36 0 2.72 0 0 Z " fill="#DEDEDE" transform="translate(0,105)"/>
<path d="M0 0 C4.20240011 3.71750779 6.99782679 8.31660979 10 13 C9.01 13.495 9.01 13.495 8 14 C5 10.25 5 10.25 5 8 C3.35 7.67 1.7 7.34 0 7 C0 4.69 0 2.38 0 0 Z " fill="#DDEAF8" transform="translate(75,35)"/>
<path d="M0 0 C1.65 0 3.3 0 5 0 C5 3.96 5 7.92 5 12 C4.67 12 4.34 12 4 12 C3.67 9.36 3.34 6.72 3 4 C1.68 4.33 0.36 4.66 -1 5 C-0.67 3.35 -0.34 1.7 0 0 Z " fill="#EFEFEF" transform="translate(90,147)"/>
<path d="M0 0 C2.35953094 2.35953094 2.49141413 3.77895617 3 7 C2.34 7 1.68 7 1 7 C1 11.62 1 16.24 1 21 C0.67 21 0.34 21 0 21 C0 14.07 0 7.14 0 0 Z " fill="#B4B4B4" transform="translate(185,107)"/>
<path d="M0 0 C0.66 0 1.32 0 2 0 C2 3.3 2 6.6 2 10 C1.34 10 0.68 10 0 10 C-1.25664978 7.09399739 -2 5.20395416 -2 2 C-1.34 2 -0.68 2 0 2 C0 1.34 0 0.68 0 0 Z " fill="#070707" transform="translate(146,105)"/>
<path d="M0 0 C-2.05233685 2.2477975 -3.00667261 3.0022242 -6 4 C-7.89470816 4.0685495 -9.7916834 4.08480372 -11.6875 4.0625 C-12.68136719 4.05347656 -13.67523438 4.04445313 -14.69921875 4.03515625 C-15.83810547 4.01775391 -15.83810547 4.01775391 -17 4 C-17 3.67 -17 3.34 -17 3 C-13.7 2.67 -10.4 2.34 -7 2 C-7 1.34 -7 0.68 -7 0 C-4.3333581 -1.33332095 -2.83319697 -0.67102033 0 0 Z " fill="#2E589B" transform="translate(137,90)"/>
<path d="M0 0 C4 1 4 1 6 2 C5.67 3.98 5.34 5.96 5 8 C4.34 8 3.68 8 3 8 C2.01 5.36 1.02 2.72 0 0 Z " fill="#EEEEEE" transform="translate(81,147)"/>
<path d="M0 0 C0 1.65 0 3.3 0 5 C-3.875 7 -3.875 7 -5 7 C-5.1875 4.625 -5.1875 4.625 -5 2 C-2 0 -2 0 0 0 Z " fill="#F7F7F7" transform="translate(183,114)"/>
<path d="M0 0 C1.65 0 3.3 0 5 0 C5.33 1.32 5.66 2.64 6 4 C5.34 4 4.68 4 4 4 C4 5.65 4 7.3 4 9 C2.00902154 6.01353231 1.05875074 3.40312738 0 0 Z " fill="#E5F7FC" transform="translate(185,18)"/>
<path d="M0 0 C0.33 0 0.66 0 1 0 C1.25 2.29296875 1.25 2.29296875 1 5 C-0.75 6.80078125 -0.75 6.80078125 -3 8.3125 C-3.7425 8.82425781 -4.485 9.33601563 -5.25 9.86328125 C-5.8275 10.23839844 -6.405 10.61351563 -7 11 C-7.66 10.67 -8.32 10.34 -9 10 C-8.071875 9.278125 -7.14375 8.55625 -6.1875 7.8125 C-3.4017848 5.51297094 -1.73274599 3.1919005 0 0 Z " fill="#E3F7FD" transform="translate(162,69)"/>
<path d="M0 0 C0.66 0.66 1.32 1.32 2 2 C1.41992188 1.97679687 0.83984375 1.95359375 0.2421875 1.9296875 C-4.61411166 1.81749577 -8.42932395 2.12485085 -13 4 C-13.66 3.34 -14.32 2.68 -15 2 C-10.29669569 -0.50842897 -5.21221812 -0.62731121 0 0 Z " fill="#6EB7CA" transform="translate(124,1)"/>
<path d="M0 0 C1.98 0.495 1.98 0.495 4 1 C4.33 2.32 4.66 3.64 5 5 C4.01 5.495 4.01 5.495 3 6 C1.68 5.01 0.36 4.02 -1 3 C-0.67 2.01 -0.34 1.02 0 0 Z " fill="#E4E4E4" transform="translate(45,147)"/>
<path d="M0 0 C0.99 0 1.98 0 3 0 C1.52307692 5.66153846 1.52307692 5.66153846 -1.125 7.375 C-2.053125 7.684375 -2.053125 7.684375 -3 8 C-3 4.38462395 -2.10770759 2.88834003 0 0 Z " fill="#353535" transform="translate(146,122)"/>
<path d="M0 0 C2.625 0.9375 2.625 0.9375 5 2 C4.67 2.99 4.34 3.98 4 5 C2.35 4.67 0.7 4.34 -1 4 C-1.33 3.01 -1.66 2.02 -2 1 C-1.34 0.67 -0.68 0.34 0 0 Z " fill="#278BB9" transform="translate(135,85)"/>
<path d="M0 0 C0.33 1.32 0.66 2.64 1 4 C0.01 4.495 0.01 4.495 -1 5 C-1.99 6.485 -1.99 6.485 -3 8 C-3.99 6.02 -4.98 4.04 -6 2 C-4.7934375 1.7834375 -4.7934375 1.7834375 -3.5625 1.5625 C-1.07896294 1.25864751 -1.07896294 1.25864751 0 0 Z " fill="#24509B" transform="translate(109,73)"/>
<path d="M0 0 C4.95 0 9.9 0 15 0 C15 0.33 15 0.66 15 1 C10.05 1.66 5.1 2.32 0 3 C0 2.01 0 1.02 0 0 Z " fill="#DCF8FD" transform="translate(109,0)"/>
<path d="M0 0 C1.485 0.99 1.485 0.99 3 2 C4.65549531 2.38499891 6.3222433 2.72793135 8 3 C8 2.01 8 1.02 8 0 C8.66 0 9.32 0 10 0 C10 1.32 10 2.64 10 4 C8.54257537 4.08096803 7.08387193 4.13917774 5.625 4.1875 C4.81289062 4.22230469 4.00078125 4.25710937 3.1640625 4.29296875 C2.44992188 4.19628906 1.73578125 4.09960938 1 4 C0.34 3.01 -0.32 2.02 -1 1 C-0.67 0.67 -0.34 0.34 0 0 Z " fill="#464646" transform="translate(103,156)"/>
<path d="M0 0 C0.99 0 1.98 0 3 0 C3 0.66 3 1.32 3 2 C3.66 2.33 4.32 2.66 5 3 C4.01 4.485 4.01 4.485 3 6 C2.01 6 1.02 6 0 6 C0 4.02 0 2.04 0 0 Z " fill="#F6F6F6" transform="translate(118,153)"/>
<path d="M0 0 C2.475 0.495 2.475 0.495 5 1 C4.67 2.32 4.34 3.64 4 5 C2.68 5 1.36 5 0 5 C0 3.35 0 1.7 0 0 Z " fill="#D7D7D7" transform="translate(68,147)"/>
<path d="M0 0 C1.32 0.33 2.64 0.66 4 1 C3.67 2.65 3.34 4.3 3 6 C2.01 6 1.02 6 0 6 C0 4.02 0 2.04 0 0 Z " fill="#F4F4F4" transform="translate(146,147)"/>
<path d="M0 0 C4.875 0.875 4.875 0.875 6 2 C6.04080783 3.99958364 6.04254356 6.00045254 6 8 C4.5 6.625 4.5 6.625 3 5 C3 4.34 3 3.68 3 3 C2.34 3 1.68 3 1 3 C0.67 2.01 0.34 1.02 0 0 Z " fill="#F7F7F7" transform="translate(216,147)"/>
<path d="M0 0 C-1.29096781 0.81360995 -2.58279875 1.62585046 -3.875 2.4375 C-4.59429687 2.88996094 -5.31359375 3.34242187 -6.0546875 3.80859375 C-8 5 -8 5 -10 6 C-9.49396008 3.83125748 -9.00016187 2.00032373 -8 0 C-4.71585695 -0.95067299 -3.30306592 -1.10102197 0 0 Z " fill="#DCF9FC" transform="translate(165,12)"/>
<path d="M0 0 C0.66 0 1.32 0 2 0 C2 0.66 2 1.32 2 2 C3.32 1.67 4.64 1.34 6 1 C6 3.64 6 6.28 6 9 C3.59927045 6.11912454 1.52708963 3.43595166 0 0 Z " fill="#DFF7F9" transform="translate(136,10)"/>
<path d="M0 0 C0.66 0.33 1.32 0.66 2 1 C1.71758359 2.46015291 1.42373386 3.91809793 1.125 5.375 C0.96257812 6.18710938 0.80015625 6.99921875 0.6328125 7.8359375 C0 10 0 10 -2 12 C-1.85831863 10.56208484 -1.71148957 9.1246763 -1.5625 7.6875 C-1.48128906 6.88699219 -1.40007812 6.08648437 -1.31640625 5.26171875 C-1 3 -1 3 0 0 Z " fill="#1E1E1E" transform="translate(201,106)"/>
<path d="M0 0 C2.31 0 4.62 0 7 0 C6.34 1.32 5.68 2.64 5 4 C2.525 3.01 2.525 3.01 0 2 C0 1.34 0 0.68 0 0 Z " fill="#010101" transform="translate(19,105)"/>
<path d="M0 0 C2.66735273 2.48952921 4.55746343 4.63408134 6 8 C4.35 7.67 2.7 7.34 1 7 C0.67 4.69 0.34 2.38 0 0 Z " fill="#64B7C9" transform="translate(137,13)"/>
<path d="M0 0 C3.33523252 1.38009621 5.18607951 2.84950652 7 6 C6.67 6.99 6.34 7.98 6 9 C3.59927045 6.11912454 1.52708963 3.43595166 0 0 Z " fill="#2D5395" transform="translate(80,41)"/>
<path d="M0 0 C0.99 0.33 1.98 0.66 3 1 C3 1.99 3 2.98 3 4 C1.02 4.33 -0.96 4.66 -3 5 C-2.01 3.35 -1.02 1.7 0 0 Z " fill="#ECECEC" transform="translate(111,124)"/>
<path d="M0 0 C0.33 0 0.66 0 1 0 C1 3.96 1 7.92 1 12 C0.01 11.67 -0.98 11.34 -2 11 C-1.34 7.37 -0.68 3.74 0 0 Z " fill="#EBEBEB" transform="translate(188,147)"/>
</svg>
